<mxfile host="app.diagrams.net" modified="2020-05-12T13:54:22.181Z" agent="5.0 (Windows NT 10.0; Win64; x64) AppleWebKit/537.36 (KHTML, like Gecko) Chrome/81.0.4044.138 Safari/537.36" etag="1KYpVTJ85KShgOXXLhPm" version="13.1.0" type="github">
  <diagram id="37Js4hQtQI7ZXpH2cMoo" name="Page-1">
    <mxGraphModel dx="782" dy="1638" grid="1" gridSize="10" guides="1" tooltips="1" connect="1" arrows="1" fold="1" page="1" pageScale="1" pageWidth="827" pageHeight="1169" math="0" shadow="0">
      <root>
        <mxCell id="0" />
        <mxCell id="1" parent="0" />
        <mxCell id="VJLdOgrYn-XbgZyUld-y-2" value="" style="edgeStyle=orthogonalEdgeStyle;html=1;verticalAlign=bottom;endArrow=open;endSize=8;strokeColor=#ff0000;" parent="1" source="VJLdOgrYn-XbgZyUld-y-1" edge="1">
          <mxGeometry relative="1" as="geometry">
            <mxPoint x="399" y="20" as="targetPoint" />
          </mxGeometry>
        </mxCell>
        <mxCell id="VJLdOgrYn-XbgZyUld-y-4" value="" style="edgeStyle=orthogonalEdgeStyle;html=1;verticalAlign=bottom;endArrow=open;endSize=8;strokeColor=#ff0000;" parent="1" source="VJLdOgrYn-XbgZyUld-y-3" edge="1">
          <mxGeometry relative="1" as="geometry">
            <mxPoint x="399" y="100" as="targetPoint" />
          </mxGeometry>
        </mxCell>
        <mxCell id="agdRF0lXaTBMBXfs1g77-1" value="Create/ Accept/ Reject/ Reschedule Appointment" style="swimlane;html=1;childLayout=stackLayout;resizeParent=1;resizeParentMax=0;startSize=30;" parent="1" vertex="1">
          <mxGeometry x="240" y="-110" width="1500" height="1180" as="geometry" />
        </mxCell>
        <mxCell id="agdRF0lXaTBMBXfs1g77-2" value="Admin/ Secretary/ Client" style="swimlane;html=1;startSize=20;" parent="agdRF0lXaTBMBXfs1g77-1" vertex="1">
          <mxGeometry y="30" width="520" height="1150" as="geometry" />
        </mxCell>
        <mxCell id="agdRF0lXaTBMBXfs1g77-28" value="Valid&lt;br&gt;Input" style="text;html=1;align=center;verticalAlign=middle;resizable=0;points=[];autosize=1;" parent="agdRF0lXaTBMBXfs1g77-2" vertex="1">
          <mxGeometry x="110" y="460" width="40" height="30" as="geometry" />
        </mxCell>
        <mxCell id="agdRF0lXaTBMBXfs1g77-20" value="Submit" style="text;html=1;align=center;verticalAlign=middle;resizable=0;points=[];autosize=1;" parent="agdRF0lXaTBMBXfs1g77-2" vertex="1">
          <mxGeometry x="105" y="380" width="50" height="20" as="geometry" />
        </mxCell>
        <mxCell id="agdRF0lXaTBMBXfs1g77-11" value="" style="rhombus;whiteSpace=wrap;html=1;fillColor=#ffffc0;strokeColor=#ff0000;" parent="agdRF0lXaTBMBXfs1g77-2" vertex="1">
          <mxGeometry x="119" y="340" width="80" height="40" as="geometry" />
        </mxCell>
        <mxCell id="VJLdOgrYn-XbgZyUld-y-3" value="Go to Dashboard/ Appointments" style="rounded=1;whiteSpace=wrap;html=1;arcSize=40;fontColor=#000000;fillColor=#ffffc0;strokeColor=#ff0000;" parent="agdRF0lXaTBMBXfs1g77-2" vertex="1">
          <mxGeometry x="99" y="100" width="120" height="40" as="geometry" />
        </mxCell>
        <mxCell id="VJLdOgrYn-XbgZyUld-y-1" value="" style="ellipse;html=1;shape=startState;fillColor=#000000;strokeColor=#ff0000;" parent="agdRF0lXaTBMBXfs1g77-2" vertex="1">
          <mxGeometry x="144" y="30" width="30" height="30" as="geometry" />
        </mxCell>
        <mxCell id="agdRF0lXaTBMBXfs1g77-6" value="Create a new Appointment" style="rounded=1;whiteSpace=wrap;html=1;arcSize=40;fontColor=#000000;fillColor=#ffffc0;strokeColor=#ff0000;" parent="agdRF0lXaTBMBXfs1g77-2" vertex="1">
          <mxGeometry x="99" y="180" width="120" height="40" as="geometry" />
        </mxCell>
        <mxCell id="agdRF0lXaTBMBXfs1g77-21" value="" style="rhombus;whiteSpace=wrap;html=1;fillColor=#ffffc0;strokeColor=#ff0000;" parent="agdRF0lXaTBMBXfs1g77-2" vertex="1">
          <mxGeometry x="119" y="420" width="80" height="40" as="geometry" />
        </mxCell>
        <mxCell id="agdRF0lXaTBMBXfs1g77-30" value="" style="edgeStyle=orthogonalEdgeStyle;html=1;verticalAlign=bottom;endArrow=open;endSize=8;strokeColor=#ff0000;" parent="agdRF0lXaTBMBXfs1g77-2" source="agdRF0lXaTBMBXfs1g77-29" edge="1">
          <mxGeometry relative="1" as="geometry">
            <mxPoint x="590" y="520" as="targetPoint" />
            <Array as="points">
              <mxPoint x="360" y="520" />
              <mxPoint x="360" y="520" />
            </Array>
          </mxGeometry>
        </mxCell>
        <mxCell id="agdRF0lXaTBMBXfs1g77-29" value="Appointment is created &amp;amp; gets a Pending Status" style="rounded=1;whiteSpace=wrap;html=1;arcSize=40;fontColor=#000000;fillColor=#ffffc0;strokeColor=#ff0000;" parent="agdRF0lXaTBMBXfs1g77-2" vertex="1">
          <mxGeometry x="105" y="500" width="120" height="40" as="geometry" />
        </mxCell>
        <mxCell id="agdRF0lXaTBMBXfs1g77-7" value="Fill in the Form" style="rounded=1;whiteSpace=wrap;html=1;arcSize=40;fontColor=#000000;fillColor=#ffffc0;strokeColor=#ff0000;" parent="agdRF0lXaTBMBXfs1g77-2" vertex="1">
          <mxGeometry x="105" y="260" width="120" height="40" as="geometry" />
        </mxCell>
        <mxCell id="agdRF0lXaTBMBXfs1g77-9" value="" style="edgeStyle=orthogonalEdgeStyle;html=1;verticalAlign=bottom;endArrow=open;endSize=8;strokeColor=#ff0000;exitX=0.5;exitY=1;exitDx=0;exitDy=0;" parent="agdRF0lXaTBMBXfs1g77-2" source="agdRF0lXaTBMBXfs1g77-6" edge="1">
          <mxGeometry relative="1" as="geometry">
            <mxPoint x="159" y="258" as="targetPoint" />
            <mxPoint x="169" y="150" as="sourcePoint" />
          </mxGeometry>
        </mxCell>
        <mxCell id="agdRF0lXaTBMBXfs1g77-16" value="" style="edgeStyle=orthogonalEdgeStyle;html=1;verticalAlign=bottom;endArrow=open;endSize=8;strokeColor=#ff0000;" parent="agdRF0lXaTBMBXfs1g77-2" edge="1">
          <mxGeometry relative="1" as="geometry">
            <mxPoint x="220" y="120" as="targetPoint" />
            <mxPoint x="200" y="360" as="sourcePoint" />
            <Array as="points">
              <mxPoint x="300" y="360" />
            </Array>
          </mxGeometry>
        </mxCell>
        <mxCell id="agdRF0lXaTBMBXfs1g77-26" value="Invalid Input" style="text;html=1;align=center;verticalAlign=middle;resizable=0;points=[];autosize=1;" parent="agdRF0lXaTBMBXfs1g77-2" vertex="1">
          <mxGeometry x="190" y="420" width="80" height="20" as="geometry" />
        </mxCell>
        <mxCell id="agdRF0lXaTBMBXfs1g77-18" value="Cacel" style="text;html=1;align=center;verticalAlign=middle;resizable=0;points=[];autosize=1;" parent="agdRF0lXaTBMBXfs1g77-2" vertex="1">
          <mxGeometry x="205" y="330" width="50" height="20" as="geometry" />
        </mxCell>
        <mxCell id="agdRF0lXaTBMBXfs1g77-22" value="&lt;span style=&quot;color: rgba(0 , 0 , 0 , 0) ; font-family: monospace ; font-size: 0px&quot;&gt;%3CmxGraphModel%3E%3Croot%3E%3CmxCell%20id%3D%220%22%2F%3E%3CmxCell%20id%3D%221%22%20parent%3D%220%22%2F%3E%3CmxCell%20id%3D%222%22%20value%3D%22%22%20style%3D%22edgeStyle%3DorthogonalEdgeStyle%3Bhtml%3D1%3BverticalAlign%3Dbottom%3BendArrow%3Dopen%3BendSize%3D8%3BstrokeColor%3D%23ff0000%3BexitX%3D0.5%3BexitY%3D1%3BexitDx%3D0%3BexitDy%3D0%3B%22%20edge%3D%221%22%20parent%3D%221%22%3E%3CmxGeometry%20relative%3D%221%22%20as%3D%22geometry%22%3E%3CmxPoint%20x%3D%22400%22%20y%3D%22340%22%20as%3D%22targetPoint%22%2F%3E%3CmxPoint%20x%3D%22399%22%20y%3D%22300%22%20as%3D%22sourcePoint%22%2F%3E%3CArray%20as%3D%22points%22%3E%3CmxPoint%20x%3D%22400%22%20y%3D%22300%22%2F%3E%3CmxPoint%20x%3D%22400%22%20y%3D%22340%22%2F%3E%3C%2FArray%3E%3C%2FmxGeometry%3E%3C%2FmxCell%3E%3C%2Froot%3E%3C%2FmxGraphModel%3E&lt;/span&gt;" style="text;html=1;align=center;verticalAlign=middle;resizable=0;points=[];autosize=1;" parent="agdRF0lXaTBMBXfs1g77-2" vertex="1">
          <mxGeometry x="246" y="412" width="20" height="20" as="geometry" />
        </mxCell>
        <mxCell id="VJLdOgrYn-XbgZyUld-y-30" value="Show &quot;Invalid Input&quot; Message" style="rounded=1;whiteSpace=wrap;html=1;arcSize=40;fontColor=#000000;fillColor=#ffffc0;strokeColor=#ff0000;" parent="agdRF0lXaTBMBXfs1g77-2" vertex="1">
          <mxGeometry x="266" y="415" width="130" height="50" as="geometry" />
        </mxCell>
        <mxCell id="agdRF0lXaTBMBXfs1g77-25" value="" style="edgeStyle=orthogonalEdgeStyle;html=1;verticalAlign=bottom;endArrow=open;endSize=8;strokeColor=#ff0000;exitX=1;exitY=0.5;exitDx=0;exitDy=0;entryX=1;entryY=0.5;entryDx=0;entryDy=0;" parent="agdRF0lXaTBMBXfs1g77-2" source="VJLdOgrYn-XbgZyUld-y-30" target="agdRF0lXaTBMBXfs1g77-7" edge="1">
          <mxGeometry relative="1" as="geometry">
            <mxPoint x="460" y="280" as="targetPoint" />
            <mxPoint x="210" y="450" as="sourcePoint" />
            <Array as="points">
              <mxPoint x="450" y="440" />
              <mxPoint x="450" y="280" />
            </Array>
          </mxGeometry>
        </mxCell>
        <mxCell id="agdRF0lXaTBMBXfs1g77-3" value="Admin/Secretary" style="swimlane;html=1;startSize=20;" parent="agdRF0lXaTBMBXfs1g77-1" vertex="1">
          <mxGeometry x="520" y="30" width="980" height="1150" as="geometry" />
        </mxCell>
        <mxCell id="agdRF0lXaTBMBXfs1g77-34" value="Reject&amp;nbsp; Appointment" style="edgeStyle=orthogonalEdgeStyle;html=1;align=left;verticalAlign=bottom;endArrow=open;endSize=8;strokeColor=#ff0000;" parent="agdRF0lXaTBMBXfs1g77-3" source="agdRF0lXaTBMBXfs1g77-33" edge="1">
          <mxGeometry x="-1" relative="1" as="geometry">
            <mxPoint x="280" y="600" as="targetPoint" />
            <Array as="points">
              <mxPoint x="260" y="600" />
            </Array>
          </mxGeometry>
        </mxCell>
        <mxCell id="agdRF0lXaTBMBXfs1g77-35" value="" style="edgeStyle=orthogonalEdgeStyle;html=1;align=left;verticalAlign=top;endArrow=open;endSize=8;strokeColor=#ff0000;" parent="agdRF0lXaTBMBXfs1g77-3" source="agdRF0lXaTBMBXfs1g77-33" edge="1">
          <mxGeometry x="1" y="222" relative="1" as="geometry">
            <mxPoint x="120" y="690" as="targetPoint" />
            <mxPoint x="-2" y="30" as="offset" />
          </mxGeometry>
        </mxCell>
        <mxCell id="agdRF0lXaTBMBXfs1g77-37" value="Approve &lt;br&gt;Appointment" style="text;html=1;align=center;verticalAlign=middle;resizable=0;points=[];autosize=1;" parent="agdRF0lXaTBMBXfs1g77-3" vertex="1">
          <mxGeometry x="40" y="635" width="80" height="30" as="geometry" />
        </mxCell>
        <mxCell id="agdRF0lXaTBMBXfs1g77-44" value="" style="edgeStyle=orthogonalEdgeStyle;html=1;verticalAlign=bottom;endArrow=open;endSize=8;strokeColor=#ff0000;" parent="agdRF0lXaTBMBXfs1g77-3" source="agdRF0lXaTBMBXfs1g77-43" edge="1">
          <mxGeometry relative="1" as="geometry">
            <mxPoint x="618" y="890" as="targetPoint" />
            <Array as="points">
              <mxPoint x="120" y="870" />
              <mxPoint x="618" y="870" />
            </Array>
          </mxGeometry>
        </mxCell>
        <mxCell id="agdRF0lXaTBMBXfs1g77-43" value="Appointment changes status to &quot;Accepted&quot;" style="rounded=1;whiteSpace=wrap;html=1;arcSize=40;fontColor=#000000;fillColor=#ffffc0;strokeColor=#ff0000;" parent="agdRF0lXaTBMBXfs1g77-3" vertex="1">
          <mxGeometry x="60" y="690" width="120" height="40" as="geometry" />
        </mxCell>
        <mxCell id="agdRF0lXaTBMBXfs1g77-33" value="" style="rhombus;whiteSpace=wrap;html=1;fillColor=#ffffc0;strokeColor=#ff0000;" parent="agdRF0lXaTBMBXfs1g77-3" vertex="1">
          <mxGeometry x="80" y="580" width="80" height="40" as="geometry" />
        </mxCell>
        <mxCell id="agdRF0lXaTBMBXfs1g77-31" value="Select Pending Appointment" style="rounded=1;whiteSpace=wrap;html=1;arcSize=40;fontColor=#000000;fillColor=#ffffc0;strokeColor=#ff0000;" parent="agdRF0lXaTBMBXfs1g77-3" vertex="1">
          <mxGeometry x="67" y="500" width="120" height="40" as="geometry" />
        </mxCell>
        <mxCell id="agdRF0lXaTBMBXfs1g77-32" value="" style="edgeStyle=orthogonalEdgeStyle;html=1;verticalAlign=bottom;endArrow=open;endSize=8;strokeColor=#ff0000;" parent="agdRF0lXaTBMBXfs1g77-3" source="agdRF0lXaTBMBXfs1g77-31" edge="1">
          <mxGeometry relative="1" as="geometry">
            <mxPoint x="120" y="580" as="targetPoint" />
            <Array as="points">
              <mxPoint x="120" y="580" />
            </Array>
          </mxGeometry>
        </mxCell>
        <mxCell id="agdRF0lXaTBMBXfs1g77-52" value="" style="edgeStyle=orthogonalEdgeStyle;html=1;verticalAlign=bottom;endArrow=open;endSize=8;strokeColor=#ff0000;" parent="agdRF0lXaTBMBXfs1g77-3" source="agdRF0lXaTBMBXfs1g77-51" target="agdRF0lXaTBMBXfs1g77-58" edge="1">
          <mxGeometry relative="1" as="geometry">
            <mxPoint x="650" y="850" as="targetPoint" />
            <Array as="points">
              <mxPoint x="320" y="830" />
              <mxPoint x="650" y="830" />
            </Array>
          </mxGeometry>
        </mxCell>
        <mxCell id="agdRF0lXaTBMBXfs1g77-59" value="" style="edgeStyle=orthogonalEdgeStyle;html=1;verticalAlign=bottom;endArrow=open;endSize=8;strokeColor=#ff0000;" parent="agdRF0lXaTBMBXfs1g77-3" source="agdRF0lXaTBMBXfs1g77-58" edge="1">
          <mxGeometry relative="1" as="geometry">
            <mxPoint x="680" y="960" as="targetPoint" />
          </mxGeometry>
        </mxCell>
        <mxCell id="agdRF0lXaTBMBXfs1g77-51" value="&lt;span&gt;Appointment changes status to &quot;Rejected&quot;&lt;/span&gt;" style="rounded=1;whiteSpace=wrap;html=1;arcSize=40;fontColor=#000000;fillColor=#ffffc0;strokeColor=#ff0000;" parent="agdRF0lXaTBMBXfs1g77-3" vertex="1">
          <mxGeometry x="260" y="690" width="120" height="40" as="geometry" />
        </mxCell>
        <mxCell id="agdRF0lXaTBMBXfs1g77-47" value="" style="rhombus;whiteSpace=wrap;html=1;fillColor=#ffffc0;strokeColor=#ff0000;" parent="agdRF0lXaTBMBXfs1g77-3" vertex="1">
          <mxGeometry x="280" y="580" width="80" height="40" as="geometry" />
        </mxCell>
        <mxCell id="agdRF0lXaTBMBXfs1g77-57" value="" style="edgeStyle=orthogonalEdgeStyle;html=1;verticalAlign=bottom;endArrow=open;endSize=8;strokeColor=#ff0000;" parent="agdRF0lXaTBMBXfs1g77-3" source="agdRF0lXaTBMBXfs1g77-56" edge="1">
          <mxGeometry relative="1" as="geometry">
            <mxPoint x="640" y="700" as="targetPoint" />
          </mxGeometry>
        </mxCell>
        <mxCell id="agdRF0lXaTBMBXfs1g77-56" value="Wait for clients response" style="rounded=1;whiteSpace=wrap;html=1;arcSize=40;fontColor=#000000;fillColor=#ffffc0;strokeColor=#ff0000;" parent="agdRF0lXaTBMBXfs1g77-3" vertex="1">
          <mxGeometry x="440" y="680" width="120" height="40" as="geometry" />
        </mxCell>
        <mxCell id="agdRF0lXaTBMBXfs1g77-53" value="Fill in the Form for the rescheduling" style="rounded=1;whiteSpace=wrap;html=1;arcSize=40;fontColor=#000000;fillColor=#ffffc0;strokeColor=#ff0000;" parent="agdRF0lXaTBMBXfs1g77-3" vertex="1">
          <mxGeometry x="440" y="580" width="120" height="40" as="geometry" />
        </mxCell>
        <mxCell id="agdRF0lXaTBMBXfs1g77-54" value="" style="edgeStyle=orthogonalEdgeStyle;html=1;verticalAlign=bottom;endArrow=open;endSize=8;strokeColor=#ff0000;" parent="agdRF0lXaTBMBXfs1g77-3" source="agdRF0lXaTBMBXfs1g77-53" edge="1">
          <mxGeometry relative="1" as="geometry">
            <mxPoint x="500" y="680" as="targetPoint" />
          </mxGeometry>
        </mxCell>
        <mxCell id="agdRF0lXaTBMBXfs1g77-4" value="Client" style="swimlane;html=1;startSize=20;" parent="agdRF0lXaTBMBXfs1g77-3" vertex="1">
          <mxGeometry x="570" width="410" height="1150" as="geometry" />
        </mxCell>
        <mxCell id="agdRF0lXaTBMBXfs1g77-73" value="" style="edgeStyle=orthogonalEdgeStyle;html=1;verticalAlign=bottom;endArrow=open;endSize=8;strokeColor=#ff0000;" parent="agdRF0lXaTBMBXfs1g77-4" source="agdRF0lXaTBMBXfs1g77-72" edge="1">
          <mxGeometry relative="1" as="geometry">
            <mxPoint x="105" y="1060" as="targetPoint" />
          </mxGeometry>
        </mxCell>
        <mxCell id="agdRF0lXaTBMBXfs1g77-74" value="" style="ellipse;html=1;shape=endState;fillColor=#000000;strokeColor=#ff0000;" parent="agdRF0lXaTBMBXfs1g77-4" vertex="1">
          <mxGeometry x="90" y="1060" width="30" height="30" as="geometry" />
        </mxCell>
        <mxCell id="agdRF0lXaTBMBXfs1g77-72" value="Back to Dashboard/Appointments" style="rounded=1;whiteSpace=wrap;html=1;arcSize=40;fontColor=#000000;fillColor=#ffffc0;strokeColor=#ff0000;" parent="agdRF0lXaTBMBXfs1g77-4" vertex="1">
          <mxGeometry x="30" y="960" width="150" height="40" as="geometry" />
        </mxCell>
        <mxCell id="agdRF0lXaTBMBXfs1g77-58" value="" style="shape=line;html=1;strokeWidth=6;strokeColor=#ff0000;" parent="agdRF0lXaTBMBXfs1g77-4" vertex="1">
          <mxGeometry x="10" y="890" width="200" height="10" as="geometry" />
        </mxCell>
        <mxCell id="agdRF0lXaTBMBXfs1g77-64" value="Clients &lt;br&gt;Approves&lt;br&gt;" style="text;html=1;align=center;verticalAlign=middle;resizable=0;points=[];autosize=1;" parent="agdRF0lXaTBMBXfs1g77-4" vertex="1">
          <mxGeometry x="50" y="725" width="70" height="30" as="geometry" />
        </mxCell>
        <mxCell id="agdRF0lXaTBMBXfs1g77-60" value="" style="rhombus;whiteSpace=wrap;html=1;fillColor=#ffffc0;strokeColor=#ff0000;" parent="agdRF0lXaTBMBXfs1g77-4" vertex="1">
          <mxGeometry x="70" y="680" width="80" height="40" as="geometry" />
        </mxCell>
        <mxCell id="agdRF0lXaTBMBXfs1g77-61" value="Client Rejects &lt;br&gt;Rescheduling" style="edgeStyle=orthogonalEdgeStyle;html=1;align=left;verticalAlign=bottom;endArrow=open;endSize=8;strokeColor=#ff0000;" parent="agdRF0lXaTBMBXfs1g77-4" source="agdRF0lXaTBMBXfs1g77-60" edge="1">
          <mxGeometry x="-1" relative="1" as="geometry">
            <mxPoint x="250" y="700" as="targetPoint" />
          </mxGeometry>
        </mxCell>
        <mxCell id="agdRF0lXaTBMBXfs1g77-62" value="" style="edgeStyle=orthogonalEdgeStyle;html=1;align=left;verticalAlign=top;endArrow=open;endSize=8;strokeColor=#ff0000;" parent="agdRF0lXaTBMBXfs1g77-4" source="agdRF0lXaTBMBXfs1g77-60" edge="1">
          <mxGeometry x="0.6667" y="310" relative="1" as="geometry">
            <mxPoint x="110" y="780" as="targetPoint" />
            <mxPoint as="offset" />
          </mxGeometry>
        </mxCell>
        <mxCell id="agdRF0lXaTBMBXfs1g77-66" value="" style="edgeStyle=orthogonalEdgeStyle;html=1;verticalAlign=bottom;endArrow=open;endSize=8;strokeColor=#ff0000;entryX=0.83;entryY=0.367;entryDx=0;entryDy=0;entryPerimeter=0;" parent="agdRF0lXaTBMBXfs1g77-4" source="agdRF0lXaTBMBXfs1g77-65" target="agdRF0lXaTBMBXfs1g77-58" edge="1">
          <mxGeometry relative="1" as="geometry">
            <mxPoint x="310" y="780" as="targetPoint" />
            <Array as="points">
              <mxPoint x="310" y="850" />
              <mxPoint x="176" y="850" />
            </Array>
          </mxGeometry>
        </mxCell>
        <mxCell id="agdRF0lXaTBMBXfs1g77-67" value="Appointment changes status to &quot;Accepted&quot;" style="rounded=1;whiteSpace=wrap;html=1;arcSize=40;fontColor=#000000;fillColor=#ffffc0;strokeColor=#ff0000;" parent="agdRF0lXaTBMBXfs1g77-4" vertex="1">
          <mxGeometry x="50" y="780" width="120" height="40" as="geometry" />
        </mxCell>
        <mxCell id="agdRF0lXaTBMBXfs1g77-68" value="" style="edgeStyle=orthogonalEdgeStyle;html=1;verticalAlign=bottom;endArrow=open;endSize=8;strokeColor=#ff0000;" parent="agdRF0lXaTBMBXfs1g77-4" source="agdRF0lXaTBMBXfs1g77-67" edge="1">
          <mxGeometry relative="1" as="geometry">
            <mxPoint x="110" y="890" as="targetPoint" />
          </mxGeometry>
        </mxCell>
        <mxCell id="agdRF0lXaTBMBXfs1g77-65" value="Appointment is deleted from the database" style="rounded=1;whiteSpace=wrap;html=1;arcSize=40;fontColor=#000000;fillColor=#ffffc0;strokeColor=#ff0000;" parent="agdRF0lXaTBMBXfs1g77-4" vertex="1">
          <mxGeometry x="250" y="680" width="120" height="40" as="geometry" />
        </mxCell>
        <mxCell id="agdRF0lXaTBMBXfs1g77-50" value="Confirm&lt;br&gt;Rejection" style="text;html=1;align=center;verticalAlign=middle;resizable=0;points=[];autosize=1;" parent="agdRF0lXaTBMBXfs1g77-3" vertex="1">
          <mxGeometry x="259" y="639" width="70" height="30" as="geometry" />
        </mxCell>
        <mxCell id="agdRF0lXaTBMBXfs1g77-12" value="" style="edgeStyle=orthogonalEdgeStyle;html=1;verticalAlign=bottom;endArrow=open;endSize=8;strokeColor=#ff0000;exitX=0.442;exitY=1.042;exitDx=0;exitDy=0;exitPerimeter=0;" parent="1" source="agdRF0lXaTBMBXfs1g77-7" edge="1">
          <mxGeometry relative="1" as="geometry">
            <mxPoint x="398" y="260" as="targetPoint" />
            <mxPoint x="409" y="150" as="sourcePoint" />
            <Array as="points">
              <mxPoint x="398" y="240" />
              <mxPoint x="398" y="240" />
            </Array>
          </mxGeometry>
        </mxCell>
        <mxCell id="agdRF0lXaTBMBXfs1g77-13" value="" style="edgeStyle=orthogonalEdgeStyle;html=1;verticalAlign=bottom;endArrow=open;endSize=8;strokeColor=#ff0000;exitX=0.5;exitY=1;exitDx=0;exitDy=0;" parent="1" source="agdRF0lXaTBMBXfs1g77-11" edge="1">
          <mxGeometry relative="1" as="geometry">
            <mxPoint x="400" y="340" as="targetPoint" />
            <mxPoint x="400" y="310" as="sourcePoint" />
            <Array as="points">
              <mxPoint x="400" y="300" />
              <mxPoint x="400" y="340" />
            </Array>
          </mxGeometry>
        </mxCell>
        <mxCell id="agdRF0lXaTBMBXfs1g77-23" value="" style="edgeStyle=orthogonalEdgeStyle;html=1;verticalAlign=bottom;endArrow=open;endSize=8;strokeColor=#ff0000;entryX=0;entryY=0.5;entryDx=0;entryDy=0;" parent="1" target="VJLdOgrYn-XbgZyUld-y-30" edge="1">
          <mxGeometry relative="1" as="geometry">
            <mxPoint x="500" y="360" as="targetPoint" />
            <mxPoint x="440" y="360" as="sourcePoint" />
            <Array as="points" />
          </mxGeometry>
        </mxCell>
        <mxCell id="agdRF0lXaTBMBXfs1g77-27" value="" style="edgeStyle=orthogonalEdgeStyle;html=1;verticalAlign=bottom;endArrow=open;endSize=8;strokeColor=#ff0000;exitX=0.5;exitY=1;exitDx=0;exitDy=0;" parent="1" source="agdRF0lXaTBMBXfs1g77-21" edge="1">
          <mxGeometry relative="1" as="geometry">
            <mxPoint x="399" y="420" as="targetPoint" />
            <mxPoint x="409" y="310" as="sourcePoint" />
            <Array as="points">
              <mxPoint x="399" y="390" />
              <mxPoint x="399" y="390" />
            </Array>
          </mxGeometry>
        </mxCell>
        <mxCell id="agdRF0lXaTBMBXfs1g77-48" value="Reschedule" style="edgeStyle=orthogonalEdgeStyle;html=1;align=left;verticalAlign=bottom;endArrow=open;endSize=8;strokeColor=#ff0000;" parent="1" source="agdRF0lXaTBMBXfs1g77-47" edge="1">
          <mxGeometry x="-1" relative="1" as="geometry">
            <mxPoint x="1200" y="520" as="targetPoint" />
          </mxGeometry>
        </mxCell>
        <mxCell id="agdRF0lXaTBMBXfs1g77-49" value="" style="edgeStyle=orthogonalEdgeStyle;html=1;align=left;verticalAlign=top;endArrow=open;endSize=8;strokeColor=#ff0000;" parent="1" source="agdRF0lXaTBMBXfs1g77-47" edge="1">
          <mxGeometry x="-1" y="22" relative="1" as="geometry">
            <mxPoint x="1080" y="610" as="targetPoint" />
            <mxPoint x="-12" y="-20" as="offset" />
          </mxGeometry>
        </mxCell>
      </root>
    </mxGraphModel>
  </diagram>
</mxfile>
